<svg xmlns="http://www.w3.org/2000/svg" width="64" height="64" viewBox="0 0 64 64">
    <defs>
        <style>
            .cls-1{fill:#fff}.cls-5{fill:#d50037}.cls-6{fill:#ff1d4b}.cls-7,.cls-8{stroke:none}.cls-8{fill:#010101}
        </style>
    </defs>
    <g id="ico_Dessert" transform="translate(-76 -609.459)">
        <path id="사각형_844" d="M0 0H64V64H0z" class="cls-1" transform="translate(76 609.459)"/>
        <g id="합치기_48" fill="#010101">
            <path d="M26.806 42.888c-7.193 0-13.96-.56-19.053-1.579C2.277 40.214-.5 38.774-.5 37.028V12.902v-.039c.019-.718.511-1.388 1.465-1.995.067-1.173.545-3.32 1.307-5.204C3.374 2.94 4.759 1.5 6.277 1.5c1.062 0 2.044.686 2.925 2.04.555-.465 1.143-.7 1.753-.7.162 0 .324.017.485.051.91-2.058 1.98-3.1 3.184-3.1 1.298 0 2.478 1.267 3.423 3.67.057.011.114.025.171.04.767-1.924 2.01-4 3.8-4 1.722 0 2.938 1.935 3.7 3.753.31-.12.626-.18.945-.18.211 0 .421.026.63.079.41-.964.858-1.749 1.333-2.337C29.332-.058 30.102-.5 30.915-.5c1.413 0 2.702 1.36 3.742 3.943.117-.018.235-.026.353-.026.049 0 .097.001.145.004.394-.965.826-1.75 1.287-2.337.674-.859 1.413-1.294 2.196-1.294.776 0 1.51.428 2.179 1.273.47.593.911 1.392 1.312 2.38.735.109 1.427.564 2.07 1.36 1.034-2.166 2.279-3.304 3.627-3.304 1.517 0 2.902 1.44 4.005 4.165.823 2.034 1.315 4.376 1.315 5.466l-.002.093.024.02.023.019.015.012.001.002.004.003c.597.502.901 1.05.901 1.624v24.125c0 1.746-2.778 3.186-8.254 4.281-5.093 1.018-11.86 1.58-19.052 1.58z" class="cls-7" transform="translate(81.197 622.518)"/>
            <path d="M26.806 42.388c14.804 0 26.805-2.398 26.805-5.36v-.617l.001-.043V12.946v-.043c0-.428-.25-.844-.724-1.243l-.002-.001-.015-.013-.018-.015-.002-.002c-.071-.058-.147-.116-.227-.173.014-.107.022-.216.022-.326 0-1.9-1.803-9.131-4.82-9.131-1.5 0-2.698 1.784-3.525 3.812-.694-1.111-1.541-1.894-2.52-1.894h-.002C41.03 1.97 39.964.29 38.638.29c-1.34 0-2.414 1.713-3.163 3.684-.15-.038-.307-.057-.465-.057-.227 0-.447.04-.66.114C33.55 1.896 32.38 0 30.914 0c-1.41 0-2.543 1.75-3.34 3.78-.29-.133-.595-.207-.912-.207-.426 0-.83.133-1.21.369C24.669 1.877 23.498 0 22.019 0c-1.528 0-2.726 1.999-3.51 4.14-.262-.129-.536-.206-.821-.22C16.97 1.992 15.928.29 14.624.29c-1.209 0-2.192 1.463-2.9 3.214-.247-.107-.503-.165-.77-.165-.685 0-1.306.384-1.855.997C8.345 2.991 7.394 2 6.277 2c-3.018 0-4.82 7.23-4.82 9.131v.024c-.93.54-1.441 1.118-1.457 1.72v24.154c0 2.962 12.002 5.36 26.806 5.36m0 1c-7.225 0-14.026-.564-19.15-1.589C1.83 40.635-1 39.074-1 37.028V12.902v-.051c.022-.836.521-1.596 1.486-2.264.118-1.261.594-3.31 1.322-5.11.5-1.234 1.063-2.23 1.676-2.961C4.328 1.509 5.268.999 6.277.999c1.116 0 2.136.616 3.043 1.834.519-.328 1.066-.494 1.635-.494.062 0 .124.002.185.006C12.11.317 13.278-.71 14.624-.71c1.366 0 2.547 1.05 3.52 3.128C19.21.175 20.535-1 22.018-1c1.005 0 1.934.53 2.762 1.576.435.55.844 1.244 1.218 2.07.22-.048.442-.073.665-.073.11 0 .22.006.33.018C28.079.207 29.397-1 30.915-1c1.004 0 1.932.539 2.757 1.602.439.565.851 1.281 1.231 2.138C35.932.45 37.186-.71 38.638-.71c1.507 0 2.8 1.249 3.85 3.714.56.141 1.092.452 1.594.93.305-.555.628-1.035.965-1.435.84-.995 1.776-1.5 2.779-1.5 1.009 0 1.948.51 2.792 1.517.613.73 1.177 1.727 1.676 2.96.813 2.01 1.312 4.329 1.35 5.516.642.578.968 1.22.968 1.911V37.028c0 2.046-2.832 3.607-8.656 4.771-5.125 1.025-11.926 1.59-19.15 1.59z" class="cls-8" transform="translate(81.197 622.518)"/>
        </g>
        <g id="합치기_43" fill="none">
            <path d="M.845 38.369H0V12.9v-.027c.015-.6.527-1.18 1.457-1.72v-.023c0-1.9 1.8-9.131 4.82-9.131C7.394 2 8.345 2.991 9.1 4.336a2.552 2.552 0 0 1 1.856-1 1.912 1.912 0 0 1 .769.165c.708-1.75 1.692-3.214 2.9-3.214 1.3 0 2.346 1.7 3.063 3.63a2.084 2.084 0 0 1 .822.221C19.292 2 20.49 0 22.018 0c1.48 0 2.65 1.877 3.436 3.942a2.273 2.273 0 0 1 1.21-.369 2.16 2.16 0 0 1 .912.208C28.372 1.751 29.506 0 30.915 0c1.466 0 2.635 1.9 3.434 4.031a1.988 1.988 0 0 1 .661-.114 1.915 1.915 0 0 1 .465.057C36.224 2 37.3.29 38.638.29s2.393 1.68 3.141 3.627A3.3 3.3 0 0 1 44.3 5.811C45.128 3.783 46.327 2 47.826 2c3.017 0 4.819 7.231 4.819 9.131a2.445 2.445 0 0 1-.022.325q.121.086.227.174l.018.015.015.013a1.689 1.689 0 0 1 .725 1.243v25.46h-.846c-2.977 2.312-13.471 4.019-25.961 4.019S3.822 40.681.845 38.369z" class="cls-7" transform="translate(81.197 619.518)"/>
            <path d="M26.806 42.388c12.489 0 22.983-1.707 25.96-4.02h.846v-5.36.043-20.104-.044c0-.428-.25-.844-.724-1.243l-.002-.001-.015-.013-.018-.015-.002-.002c-.071-.058-.147-.116-.227-.173.014-.107.022-.216.022-.326 0-1.9-1.803-9.131-4.82-9.131-1.5 0-2.698 1.784-3.525 3.812-.694-1.111-1.541-1.894-2.52-1.894h-.002C41.03 1.97 39.964.29 38.638.29c-1.34 0-2.414 1.713-3.163 3.684-.15-.038-.307-.057-.465-.057-.227 0-.447.04-.66.114C33.55 1.896 32.38 0 30.914 0c-1.41 0-2.543 1.75-3.34 3.78-.29-.133-.595-.207-.912-.207-.426 0-.83.133-1.21.369C24.669 1.877 23.498 0 22.019 0c-1.528 0-2.726 1.999-3.51 4.14-.262-.129-.536-.206-.821-.22C16.97 1.992 15.928.29 14.624.29c-1.209 0-2.192 1.463-2.9 3.214-.247-.107-.503-.165-.77-.165-.685 0-1.306.384-1.855.997C8.345 2.991 7.394 2 6.277 2c-3.018 0-4.82 7.23-4.82 9.131v.024c-.93.54-1.441 1.118-1.457 1.72v25.494h.845c2.977 2.313 13.471 4.02 25.96 4.02m0 1c-6.117 0-11.893-.4-16.702-1.155-3.228-.507-7.438-1.409-9.581-2.864H-1V12.902v-.051c.022-.836.521-1.596 1.486-2.264.118-1.261.594-3.31 1.322-5.11.5-1.234 1.063-2.23 1.676-2.961C4.328 1.509 5.268.999 6.277.999c1.116 0 2.136.616 3.043 1.834.519-.328 1.066-.494 1.635-.494.062 0 .124.002.185.006C12.11.317 13.278-.71 14.624-.71c1.366 0 2.547 1.05 3.52 3.128C19.21.175 20.535-1 22.018-1c1.005 0 1.934.53 2.762 1.576.435.55.844 1.244 1.218 2.07.22-.048.442-.073.665-.073.11 0 .22.006.33.018C28.079.207 29.397-1 30.915-1c1.004 0 1.932.539 2.757 1.602.439.565.851 1.281 1.231 2.138C35.932.45 37.186-.71 38.638-.71c1.507 0 2.8 1.249 3.85 3.714.56.141 1.092.452 1.594.93.305-.555.628-1.035.965-1.435.84-.995 1.776-1.5 2.779-1.5 1.009 0 1.948.51 2.792 1.517.613.73 1.177 1.727 1.676 2.96.813 2.01 1.312 4.329 1.35 5.516.642.578.968 1.22.968 1.911v26.465H53.09c-2.144 1.456-6.353 2.358-9.582 2.865-4.809.756-10.584 1.155-16.702 1.155z" class="cls-8" transform="translate(81.197 619.518)"/>
        </g>
        <path id="합치기_30" fill="#5b3027" d="M0 29.486V5.361C0 2.4 12 0 26.806 0s26.805 2.4 26.805 5.361v24.125c0 2.961-12 5.361-26.806 5.361S0 32.447 0 29.486z" transform="translate(81.197 627.06)"/>
        <path id="빼기_9" d="M26.806 9.722C12.025 9.722 0 7.317 0 4.361V0c0 1.429 2.792 2.775 7.86 3.789a101.473 101.473 0 0 0 18.946 1.572c14.781 0 26.806-2.405 26.806-5.361v4.361c0 2.956-12.025 5.361-26.806 5.361z" class="cls-5" transform="translate(81.197 653.526)"/>
        <g id="그룹_372" transform="translate(81.197 619.518)">
            <ellipse id="타원_116" cx="27.806" cy="5.861" rx="27.806" ry="5.861" transform="translate(-1 7.542)"/>
            <path id="패스_2497" d="M4.174-4.047c2.614 0 4.174 6.833 4.174 8.63S6.479 7.836 4.174 7.836 0 6.38 0 4.583s1.561-8.63 4.174-8.63z" class="cls-5" transform="translate(10.451 4.337)"/>
            <path id="패스_2501" d="M4.654-4.047c2.914 0 4.654 7.492 4.654 9.461S7.225 8.982 4.654 8.982 0 7.385 0 5.415s1.74-9.462 4.654-9.462z" class="cls-5" transform="translate(26.26 4.047)"/>
            <path id="패스_2491" d="M4.819-4.047c3.018 0 4.819 7.231 4.819 9.132S7.481 8.528 4.819 8.528 0 6.987 0 5.086s1.8-9.133 4.819-9.133z" class="cls-5" transform="translate(1.457 6.045)"/>
            <path id="패스_2486" d="M4.819-4.047c3.018 0 4.819 7.231 4.819 9.132S7.481 8.528 4.819 8.528 0 6.987 0 5.086s1.8-9.133 4.819-9.133z" class="cls-5" transform="translate(43.006 6.045)"/>
            <path id="패스_2488" d="M4.679-4.047c2.929 0 4.679 7.02 4.679 8.865S7.263 8.161 4.679 8.161 0 6.664 0 4.819s1.749-8.866 4.679-8.866z" class="cls-6" transform="translate(6.277 7.385)"/>
            <path id="패스_2502" d="M4.368-4.047c2.732 0 4.369 7.147 4.369 9.032s-1.956 3.4-4.368 3.4S0 6.865 0 4.985s1.633-9.032 4.368-9.032z" class="cls-5" transform="translate(34.27 4.337)"/>
            <path id="패스_2496" d="M4.564-4.047c2.857 0 4.564 7 4.564 8.84S7.084 8.126 4.564 8.126 0 6.634 0 4.794s1.706-8.841 4.564-8.841z" class="cls-5" transform="translate(17.455 4.047)"/>
            <path id="패스_2490" d="M4.679-4.047c2.929 0 4.679 7.02 4.679 8.865S7.263 8.161 4.679 8.161 0 6.664 0 4.819s1.749-8.866 4.679-8.866z" class="cls-6" transform="translate(37.103 7.964)"/>
            <path id="패스_2483" d="M4.956-4.047c3.1 0 4.956 7.435 4.956 9.39s-2.219 3.54-4.956 3.54S0 7.3 0 5.343s1.853-9.39 4.956-9.39z" class="cls-6" transform="translate(12.631 7.963)"/>
            <path id="패스_2489" d="M4.956-4.047c3.1 0 4.956 7.435 4.956 9.39s-2.219 3.54-4.956 3.54S0 7.3 0 5.343s1.853-9.39 4.956-9.39z" class="cls-6" transform="translate(30.055 7.963)"/>
            <path id="딸기리더" d="M5.219-4.047c3.268 0 5.219 7.83 5.219 9.889S8.1 9.571 5.219 9.571 0 7.9 0 5.843s1.951-9.89 5.219-9.89z" class="cls-6" transform="translate(21.445 7.62)"/>
            <circle id="타원_120" cx=".647" cy=".647" r=".647" class="cls-1" transform="translate(24.721 6.247)"/>
            <circle id="타원_121" cx=".647" cy=".647" r=".647" class="cls-1" transform="translate(26.016 7.542)"/>
            <circle id="타원_122" cx=".647" cy=".647" r=".647" class="cls-1" transform="translate(27.311 6.247)"/>
        </g>
    </g>
</svg>
