<svg xmlns="http://www.w3.org/2000/svg" width="64" height="64" viewBox="0 0 64 64">
    <defs>
        <linearGradient id="linear-gradient" x1=".5" x2=".485" y2=".895" gradientUnits="objectBoundingBox">
            <stop offset="0" stop-color="#d50037"/>
            <stop offset="1" stop-color="#d50037"/>
        </linearGradient>
        <clipPath id="clip-path">
            <path id="사각형_854" d="M0 0H64V64H0z" class="cls-1" transform="translate(76 609.459)"/>
        </clipPath>
        <style>
            .cls-1,.cls-8{fill:#fff}.cls-11,.cls-5{fill:none}.cls-5,.cls-7,.cls-8{stroke:#010101}.cls-7{fill:#ffe226}.cls-9{stroke:none}
        </style>
    </defs>
    <g id="ico_c_d" transform="translate(-76 -609.459)">
        <path id="사각형_844" d="M0 0H64V64H0z" class="cls-1" transform="translate(76 609.459)"/>
        <g id="마스크_그룹_4" clip-path="url(#clip-path)">
            <g id="그룹_478" transform="rotate(35.02 105.267 640.295)">
                <g id="합치기_45" fill="#fff">
                    <path d="M-5492.94 1857.405c-3.296 0-5.19-.858-6.198-1.578-.96-.686-1.318-1.379-1.384-1.523l-1.653-7.438-.05-.22-.197-.109c-3-1.659-5.522-4.09-7.293-7.028-1.822-3.024-2.785-6.5-2.785-10.05 0-2.633.515-5.186 1.532-7.59.982-2.322 2.388-4.407 4.179-6.198 1.791-1.791 3.876-3.197 6.199-4.18 2.403-1.016 4.957-1.532 7.59-1.532 2.632 0 5.186.516 7.59 1.532 2.322.983 4.407 2.389 6.198 4.18 1.791 1.79 3.197 3.876 4.179 6.198 1.016 2.404 1.532 4.957 1.532 7.59 0 3.55-.963 7.026-2.785 10.05-1.77 2.94-4.293 5.37-7.293 7.028l-.197.11-.05.22-1.655 7.446c-.05.121-.377.824-1.328 1.52-.98.717-2.84 1.572-6.13 1.572z" class="cls-9" transform="translate(5601 -1196)"/>
                    <path fill="#010101" d="M-5492.94 1856.905c3.099 0 4.846-.776 5.767-1.426.83-.587 1.14-1.163 1.215-1.323l1.645-7.398.097-.44.395-.218c2.924-1.617 5.381-3.985 7.107-6.849 1.775-2.946 2.713-6.332 2.713-9.792 0-2.565-.502-5.053-1.493-7.395-.956-2.262-2.326-4.294-4.071-6.04-1.746-1.745-3.778-3.115-6.04-4.072-2.342-.99-4.83-1.493-7.395-1.493-2.566 0-5.054.502-7.396 1.493-2.262.957-4.294 2.327-6.04 4.072-1.745 1.746-3.115 3.778-4.072 6.04-.99 2.342-1.492 4.83-1.492 7.395 0 3.46.938 6.846 2.713 9.792 1.725 2.864 4.183 5.232 7.107 6.849l.395.218.097.44 1.641 7.382c.09.175.427.746 1.268 1.328.948.656 2.73 1.437 5.84 1.437m0 1c-6.747 0-8.061-3.446-8.061-3.446l-1.664-7.484c-6.163-3.408-10.336-9.974-10.336-17.516 0-11.045 8.954-20 20-20s19.999 8.955 19.999 20c0 7.542-4.173 14.108-10.336 17.516l-1.664 7.484s-1.194 3.446-7.939 3.446z" transform="translate(5601 -1196)"/>
                </g>
                <circle id="타원_182" cx="17" cy="17" r="17" fill="url(#linear-gradient)" transform="translate(91 616.459)"/>
                <path id="패스_2902" d="M100.017 661.406s7.724 5.639 15.814 0" class="cls-5"/>
                <path id="패스_2903" d="M100.017 661.406s7.724 5.639 15.814 0" class="cls-5" transform="translate(0 2.506)"/>
                <path id="패스_2904" d="M100.017 661.406s7.724 5.639 15.814 0" class="cls-5" transform="translate(0 5.012)"/>
                <ellipse id="타원_179" cx="8" cy="3.5" fill="#010101" rx="8" ry="3.5" transform="translate(100 654.459)"/>
                <g id="사각형_848" class="cls-5" transform="translate(104 648.459)">
                    <rect width="8" height="12" class="cls-9" rx="4"/>
                    <rect width="7" height="11" x=".5" y=".5" class="cls-11" rx="3.5"/>
                </g>
                <path id="패스_2906" d="M5623.248-1161.623l7.171-17.53" class="cls-5" transform="translate(-5513 1811.459)"/>
                <path id="패스_2907" d="M5630.42-1161.623l-7.171-17.53" class="cls-5" transform="translate(-5525.001 1811.459)"/>
                <path id="패스_2908" d="M-1032.114 550.926a12.023 12.023 0 0 1 6.879-1.881 12.8 12.8 0 0 1 6.944 1.9" class="cls-5" transform="translate(1133 88)"/>
                <g id="타원_183" class="cls-7" transform="translate(96 630.459)">
                    <circle cx="2.5" cy="2.5" r="2.5" class="cls-9"/>
                    <circle cx="2.5" cy="2.5" r="2" class="cls-11"/>
                </g>
                <g id="타원_184" class="cls-7" transform="translate(115 630.459)">
                    <circle cx="2.5" cy="2.5" r="2.5" class="cls-9"/>
                    <circle cx="2.5" cy="2.5" r="2" class="cls-11"/>
                </g>
                <path id="패스_2909" d="M-1031.111 550.347a12.507 12.507 0 0 1 5.877-1.3 13.192 13.192 0 0 1 6.258 1.487" class="cls-5" transform="translate(1133 91)"/>
                <g id="사각형_851" class="cls-8" transform="translate(107.999 607.459)">
                    <path d="M0 0H1V4H0z" class="cls-9"/>
                    <rect height="3" x=".5" y=".5" class="cls-11"/>
                </g>
                <g id="사각형_852" class="cls-8" transform="rotate(25 -1315.972 563.602)">
                    <path d="M0 0H1V3H0z" class="cls-9"/>
                    <rect height="2" x=".5" y=".5" class="cls-11"/>
                </g>
                <g id="사각형_853" class="cls-8" transform="rotate(155 -16.106 317.3)">
                    <path d="M0 0H1V3H0z" class="cls-9"/>
                    <rect height="2" x=".5" y=".5" class="cls-11"/>
                </g>
            </g>
        </g>
    </g>
</svg>
