<svg xmlns="http://www.w3.org/2000/svg" xmlns:xlink="http://www.w3.org/1999/xlink" width="64" height="64" viewBox="0 0 64 64">
    <defs>
        <linearGradient id="linear-gradient" x1=".486" x2=".011" y1=".39" y2="1.089" gradientUnits="objectBoundingBox">
            <stop offset="0" stop-color="#7a440c"/>
            <stop offset="1" stop-color="#2a1500"/>
        </linearGradient>
        <linearGradient id="linear-gradient-3" x1=".32" x2="-.111" y1=".617" y2=".125" xlink:href="#linear-gradient"/>
        <linearGradient id="linear-gradient-5" x1=".635" x2="1.163" y1=".355" y2=".414" gradientUnits="objectBoundingBox">
            <stop offset="0" stop-color="#7d4306"/>
            <stop offset="1" stop-color="#2a1500"/>
        </linearGradient>
        <style>
            .cls-2{fill:#010101}.cls-3{fill:url(#linear-gradient)}.cls-4{fill:url(#linear-gradient-3)}.cls-5{fill:url(#linear-gradient-5)}
        </style>
    </defs>
    <g id="ico_roasting" transform="translate(-76 -609.459)">
        <path id="사각형_844" fill="#fff" d="M0 0H64V64H0z" transform="translate(76 609.459)"/>
        <g id="콩1" transform="translate(102.433 649.459)">
            <path id="패스_2626" d="M14.152.606a9.892 9.892 0 0 1 6.7 0 4.99 4.99 0 0 1 2.592 2.757A7.151 7.151 0 0 1 24 6.089a12.176 12.176 0 0 1-2.932 7.172c-2.945 3.53-5.49 5.658-10.356 6.558s-8.924-1.741-9.9-3.758S-1.527 10.01 5.171 5.59 14.152.606 14.152.606z" class="cls-2"/>
            <path id="패스_2627" d="M13.949 4.691c3.322-2.272 5.375-6.047 6.768-4.2a4.286 4.286 0 0 1 .856 3.611s-.524 6.338-9.085 9.739-11.251.618-12.238-.322.97-1 5.555-3.349 4.823-3.207 8.144-5.479z" class="cls-3" transform="translate(1.862 2.266)"/>
            <path id="패스_2668" d="M20.183 1.022c.161-.556-1.667-1.6-5.914-.61a25.192 25.192 0 0 0-8.2 4.019S2.381 6.658 1.045 8.619-.14 12.165.363 13.126s3.369-1.183 6.367-2.818a52.257 52.257 0 0 0 5.508-3.443c3.332-2.16 2.849-2.641 4.7-3.9s3.083-1.386 3.245-1.943z" class="cls-3" transform="translate(.992 .704)"/>
        </g>
        <g id="콩2" transform="scale(-1) rotate(10.02 3627.543 -939.677)">
            <path id="패스_2626-2" d="M19.206 25.956s4.787 1.89 9.136 0a6.867 6.867 0 0 0 3.535-3.819 10.835 10.835 0 0 0 .8-3.85A16.362 16.362 0 0 0 28.8 8.365C24.783 3.476 20.431 1.621 14.58.416S3.408.688 1.533 4.016s-3.71 8.916 5.425 15.037 12.248 6.903 12.248 6.903z" class="cls-2"/>
            <path id="패스_2627-2" d="M18.444 17.41s4.788 1.808 7.795.472-.725-2.227-.725-2.227-2.621-1.044-10.552-4.025S.988-1.276.258.137s-.287 5.59 6.3 10.228c8.869 6.243 11.886 7.045 11.886 7.045z" class="cls-4" transform="rotate(2 -202.771 27.751)"/>
            <path id="패스_2669" d="M28.08 21.215s-1.418 1.046-3.449-.895-5.355-1.663-10.651-4.639S8.686 12.6 5.591 9.424.556 4.227.556 4.227s-.873-.642-.431-1.463S2.935-.855 9.762.258 28.31 10.2 29.512 15.11s-1.432 6.105-1.432 6.105z" class="cls-4" transform="translate(1.467 2.381)"/>
        </g>
        <g id="콩3" transform="rotate(142 -38.708 339.814)">
            <path id="패스_2634" d="M4.769 14.736A6.547 6.547 0 0 1 0 8.326C-.112 3.011 5.336.632 8.665.186S17.594 0 21.6 2.007s4.616 3.27 4.616 3.27a3.151 3.151 0 0 1-.227 3.9 8.267 8.267 0 0 1-2.61 1.784c-.946.334-1.059.78-2.61 2.156 0 0-1.929 1.561-6.81 2.341a20.974 20.974 0 0 1-9.19-.722z" class="cls-2"/>
            <path id="패스_2635" d="M19.226 3.361a7.053 7.053 0 0 0-2.1-.2 4.5 4.5 0 0 1-3.284-1.011c-.864-.766-2.342-.892-3.916-1.424S7.039-.264 2.553.177.858 3.99.858 3.99s2.7 3.259 9.911 2.569 8.457-3.198 8.457-3.198z" class="cls-5" transform="translate(1.885 8.358)"/>
            <path id="패스_2636" d="M1.2 5.255s-2.722-.567.037-2.434S6.176-.587 14.207.219s8.586 4.752 8.193 5.749a5.673 5.673 0 0 1-5.344 2.612 32.061 32.061 0 0 1-5.145-1.511 40.633 40.633 0 0 0-4.795-1.4A27.808 27.808 0 0 0 1.2 5.255z" class="cls-5" transform="translate(3.446 2.426)"/>
        </g>
    </g>
</svg>
