<svg xmlns="http://www.w3.org/2000/svg" width="32" height="32" viewBox="0 0 32 32">
    <g opacity="0.56">
        <g fill="none" stroke="#fff" stroke-miterlimit="10" transform="translate(.073 .073) translate(-.073 -.073)">
            <circle cx="16" cy="16" r="16" stroke="none"/>
            <circle cx="16" cy="16" r="15.5"/>
        </g>
        <path fill="#fff" d="M76.915 7.085h1.443v6a.213.213 0 0 0 .212.215h2.447a.213.213 0 0 0 .212-.215V7.113h1.661a.213.213 0 0 0 .211-.19l.252-2.21a.216.216 0 0 0-.052-.167.212.212 0 0 0-.159-.072h-1.911V3.089c0-.418.223-.629.662-.629h1.25a.213.213 0 0 0 .212-.215V.216A.213.213 0 0 0 83.142 0h-1.801a3.279 3.279 0 0 0-2.158.822 2.3 2.3 0 0 0-.753 2.032v1.62h-1.515a.213.213 0 0 0-.212.215v2.182a.213.213 0 0 0 .212.214z" transform="translate(.073 .073) translate(-64.065 9.312)"/>
    </g>
</svg>
